<svg width="20" height="20" viewBox="0 0 20 20" fill="none" xmlns="http://www.w3.org/2000/svg">
<path fill-rule="evenodd" clip-rule="evenodd" d="M9.99984 18.3334C14.6022 18.3334 18.3332 14.6025 18.3332 10.0001C18.3332 5.39771 14.6022 1.66675 9.99984 1.66675C5.39746 1.66675 1.6665 5.39771 1.6665 10.0001C1.6665 14.6025 5.39746 18.3334 9.99984 18.3334ZM12.165 8.74997C11.7018 7.94774 9.34217 6.6326 8.16691 6.01306C7.85101 5.84654 7.47736 6.06227 7.46363 6.4191C7.41253 7.74668 7.37167 10.4477 7.83483 11.25C8.29799 12.0522 10.6576 13.3673 11.8329 13.9869C12.1488 14.1534 12.5224 13.9377 12.5362 13.5808C12.5873 12.2533 12.6281 9.55219 12.165 8.74997Z" fill="#88C273"/>
</svg>
